<?xml version="1.0" standalone="no"?><!DOCTYPE svg PUBLIC "-//W3C//DTD SVG 1.1//EN" "http://www.w3.org/Graphics/SVG/1.1/DTD/svg11.dtd"><svg t="1647342318611" class="icon" viewBox="0 0 1024 1024" version="1.1" xmlns="http://www.w3.org/2000/svg" p-id="1902" xmlns:xlink="http://www.w3.org/1999/xlink" width="200" height="200"><defs><style type="text/css"></style></defs><path d="M384 262.4v38.4h-51.2a32 32 0 0 0-31.936 29.9008L300.8 332.8v422.4a32 32 0 0 0 29.9008 31.936L332.8 787.2h358.4a32 32 0 0 0 31.936-29.9008L723.2 755.2V332.8a32 32 0 0 0-29.9008-31.936L691.2 300.8h-51.2v-38.4h51.2a70.4 70.4 0 0 1 70.3488 67.5712L761.6 332.8v422.4a70.4 70.4 0 0 1-67.5712 70.3488L691.2 825.6H332.8a70.4 70.4 0 0 1-70.3488-67.5712L262.4 755.2V332.8a70.4 70.4 0 0 1 67.5712-70.3488L332.8 262.4h51.2z" fill="#6F6D6D" p-id="1903"></path><path d="M627.2 448a19.2 19.2 0 0 1 1.8432 38.3104L627.2 486.4H396.8a19.2 19.2 0 0 1-1.8432-38.3104L396.8 448h230.4zM627.2 576a19.2 19.2 0 0 1 1.8432 38.3104L627.2 614.4H396.8a19.2 19.2 0 0 1-1.8432-38.3104L396.8 576h230.4zM627.2 704a19.2 19.2 0 0 1 1.8432 38.3104L627.2 742.4H396.8a19.2 19.2 0 0 1-1.8432-38.3104L396.8 704h230.4z" fill="#69C0FF" p-id="1904"></path><path d="M448 198.4l-1.8432 0.0896A19.2 19.2 0 0 0 428.8 217.6v19.2H396.8a32 32 0 0 0-32 32v89.6a32 32 0 0 0 32 32h230.4a32 32 0 0 0 32-32v-89.6l-0.064-2.0992A32 32 0 0 0 627.2 236.8h-32V217.6a19.2 19.2 0 0 0-19.2-19.2H448z m108.8 38.4V256l0.0896 1.8432A19.2 19.2 0 0 0 576 275.2h44.8v76.8h-217.6v-76.8H448l1.8432-0.0896A19.2 19.2 0 0 0 467.2 256v-19.2h89.6z" fill="#6F6D6D" p-id="1905"></path></svg>