<?xml version="1.0" standalone="no"?><!DOCTYPE svg PUBLIC "-//W3C//DTD SVG 1.1//EN" "http://www.w3.org/Graphics/SVG/1.1/DTD/svg11.dtd"><svg t="1648278187592" class="icon" viewBox="0 0 1024 1024" version="1.1" xmlns="http://www.w3.org/2000/svg" p-id="4281" xmlns:xlink="http://www.w3.org/1999/xlink" width="200" height="200"><defs><style type="text/css">@font-face { font-family: feedback-iconfont; src: url("//at.alicdn.com/t/font_1031158_u69w8yhxdu.woff2?t=1630033759944") format("woff2"), url("//at.alicdn.com/t/font_1031158_u69w8yhxdu.woff?t=1630033759944") format("woff"), url("//at.alicdn.com/t/font_1031158_u69w8yhxdu.ttf?t=1630033759944") format("truetype"); }
</style></defs><path d="M943.45 208.26L815.74 80.55a56.508 56.508 0 0 0-44.89-16.33L560.48 82.68a56.478 56.478 0 0 0-35.01 16.33L80.55 543.93c-22.07 22.07-22.07 57.84 0 79.9l319.62 319.62c22.07 22.07 57.84 22.07 79.9 0l444.92-444.92a56.503 56.503 0 0 0 16.33-35.01l18.46-210.37a56.508 56.508 0 0 0-16.33-44.89z" fill="#8C9EFF" p-id="4282"></path><path d="M739.76 284.24m-84 0a84 84 0 1 0 168 0 84 84 0 1 0-168 0Z" fill="#FFFFFF" p-id="4283"></path><path d="M440.04 792m-28 0a28 28 0 1 0 56 0 28 28 0 1 0-56 0Z" fill="#FFD600" p-id="4284"></path></svg>