<?xml version="1.0" standalone="no"?><!DOCTYPE svg PUBLIC "-//W3C//DTD SVG 1.1//EN" "http://www.w3.org/Graphics/SVG/1.1/DTD/svg11.dtd"><svg t="1648461672431" class="icon" viewBox="0 0 1024 1024" version="1.1" xmlns="http://www.w3.org/2000/svg" p-id="3117" xmlns:xlink="http://www.w3.org/1999/xlink" width="200" height="200"><defs><style type="text/css">@font-face { font-family: feedback-iconfont; src: url("//at.alicdn.com/t/font_1031158_u69w8yhxdu.woff2?t=1630033759944") format("woff2"), url("//at.alicdn.com/t/font_1031158_u69w8yhxdu.woff?t=1630033759944") format("woff"), url("//at.alicdn.com/t/font_1031158_u69w8yhxdu.ttf?t=1630033759944") format("truetype"); }
</style></defs><path d="M361.90260253 498.7439281l-91.13549432 156.17309708 21.95536909 151.06398605 142.50277294-56.3383056L525.80840823 594.43619714z" fill="#F37C7E" p-id="3118"></path><path d="M254.39033605 866.82085789l-30.19438599-208.26761853 117.24259148-200.90313415 225.64780169 131.82427058-116.50614303 199.72481664-196.18986415 77.62166546z m30.93083444-196.48444352l16.64373472 114.14950805 107.96334116-42.71400947 76.59063764-131.23511182-123.87062744-72.31923669-77.32708608 132.11884993z" fill="#858585" p-id="3119"></path><path d="M349.90999998 675.30237826l25.11197121 14.49882864-68.55874687 118.74264491-25.11197119-14.49882865z" fill="#858585" p-id="3120"></path><path d="M371.01615197 670.79669466m-24.1647144 0a24.1647144 24.1647144 0 1 0 48.3294288 0 24.1647144 24.1647144 0 1 0-48.3294288 0Z" fill="#858585" p-id="3121"></path><path d="M606.03526005 532.85069643l-230.32424929-134.49389616 205.74528264-352.39057805c7.7327086-13.11798782 24.57896666-17.67476253 37.83503855-9.94205392L801.97657283 142.62507984c13.11798782 7.7327086 17.67476253 24.57896666 9.94205393 37.83503854L606.03526005 532.85069643z" fill="#F37C7E" p-id="3122"></path><path d="M615.97731397 570.68573497L337.87597221 408.43693827 557.56774717 32.15781398c15.32733314-26.23597565 49.29601739-35.21144098 75.53199301-19.88410785L815.78498107 118.87461769c26.23597565 15.32733314 35.21144098 49.29601739 19.88410785 75.53199301L615.97731397 570.68573497zM413.40796524 388.55283042l182.68524089 106.60091154 191.79879032-328.50203181-182.6852409-106.60091154-191.79879031 328.50203181z" fill="#858585" p-id="3123"></path><path d="M534.92195766 599.82147635l-182.68524089-106.60091155c-13.11798782-7.7327086-17.67476253-24.57896666-9.94205392-37.83503855l31.06891852-53.30045576 230.32424929 134.49389617-30.93083445 53.30045576c-7.7327086 13.11798782-24.57896666 17.67476253-37.83503855 9.94205393z" fill="#FFFFBE" p-id="3124"></path><path d="M520.97546534 623.71002258l-182.68524088-106.60091153c-26.23597565-15.32733314-35.21144098-49.29601739-19.88410786-75.53199302l45.01541083-77.18900202 277.96325769 162.24879673-45.01541084 77.18900199c-15.18924905 26.23597565-49.01984922 35.21144098-75.39390894 19.88410785z m-137.53174597-183.78991355l-17.1224262 29.41190954 182.6852409 106.60091153 17.1224262-29.41190951-182.6852409-106.60091156z" fill="#858585" p-id="3125"></path></svg>