<?xml version="1.0" standalone="no"?><!DOCTYPE svg PUBLIC "-//W3C//DTD SVG 1.1//EN" "http://www.w3.org/Graphics/SVG/1.1/DTD/svg11.dtd"><svg t="1648278232467" class="icon" viewBox="0 0 1024 1024" version="1.1" xmlns="http://www.w3.org/2000/svg" p-id="4424" xmlns:xlink="http://www.w3.org/1999/xlink" width="200" height="200"><defs><style type="text/css">@font-face { font-family: feedback-iconfont; src: url("//at.alicdn.com/t/font_1031158_u69w8yhxdu.woff2?t=1630033759944") format("woff2"), url("//at.alicdn.com/t/font_1031158_u69w8yhxdu.woff?t=1630033759944") format("woff"), url("//at.alicdn.com/t/font_1031158_u69w8yhxdu.ttf?t=1630033759944") format("truetype"); }
</style></defs><path d="M986.39 37.61c-49.988-49.988-131-49.988-180.99 0L0.118 842.924v180.958h180.958l805.314-805.286c49.988-49.986 49.988-130.998 0-180.986z" fill="#F6BB42" p-id="4425"></path><path d="M956.242 248.748l30.148-30.15c49.988-49.988 49.988-131 0-180.988s-131-49.988-180.99 0l-30.148 30.148 180.99 180.99z" fill="#EC87C0" p-id="4426"></path><path d="M850.796 143.302L151.05 843.048c-8.31 8.342-8.31 21.84 0 30.15a21.328 21.328 0 0 0 30.182 0L880.946 173.484l-30.15-30.182z" fill="#FFCE54" p-id="4427"></path><path d="M0.118 842.924v180.958h180.958z" fill="#FFE5AB" p-id="4428"></path><path d="M835.708 369.534l-180.992-180.992 120.66-120.628 180.992 180.96z" fill="#E6E9ED" p-id="4429"></path><path d="M760.316 143.302l-30.18-30.148c-0.032-0.062-0.094-0.094-0.124-0.124l-30.148 30.148c0.032 0.032 0.062 0.094 0.124 0.124l30.148 30.182c8.342 8.31 21.84 8.31 30.18 0 8.312-8.342 8.312-21.84 0-30.182zM850.516 293.864l30.18 30.148c0.032 0.062 0.094 0.094 0.124 0.124l30.15-30.148c-0.032-0.032-0.062-0.094-0.124-0.124l-30.15-30.182c-8.34-8.31-21.838-8.31-30.18 0-8.31 8.342-8.31 21.84 0 30.182z" fill="#CCD1D9" p-id="4430"></path><path d="M0.118 963.552v60.33h60.33z" fill="#656D78" p-id="4431"></path></svg>