<?xml version="1.0" standalone="no"?><!DOCTYPE svg PUBLIC "-//W3C//DTD SVG 1.1//EN" "http://www.w3.org/Graphics/SVG/1.1/DTD/svg11.dtd"><svg t="1648281796525" class="icon" viewBox="0 0 1024 1024" version="1.1" xmlns="http://www.w3.org/2000/svg" p-id="37718" xmlns:xlink="http://www.w3.org/1999/xlink" width="200" height="200"><defs><style type="text/css">@font-face { font-family: feedback-iconfont; src: url("//at.alicdn.com/t/font_1031158_u69w8yhxdu.woff2?t=1630033759944") format("woff2"), url("//at.alicdn.com/t/font_1031158_u69w8yhxdu.woff?t=1630033759944") format("woff"), url("//at.alicdn.com/t/font_1031158_u69w8yhxdu.ttf?t=1630033759944") format("truetype"); }
</style></defs><path d="M435.7 445.9s-1.7-220.2 0-254.8c1.7-34.5 52.4-101.3 121.2-101.3 45 1.4 44.1 25.2 44.1 25.2l-0.4 330.8H435.7z" fill="#B73131" p-id="37719"></path><path d="M616.1 461.4H420.4l-0.1-15.4c-0.1-9-1.7-221.1 0-255.7 1.1-22.2 16.8-51.2 40.1-73.9 27.8-27.2 62.1-42.1 96.6-42.1h0.5c22.5 0.7 39 6.6 49.3 17.5 9.2 9.8 9.9 20.2 9.9 23.3l-0.6 346.3z m-165-31h134l0.4-314.9c-0.6-2.7-6.8-9.4-28.8-10.1-35.5 0.1-62 20.9-74.7 33.3-20.3 19.9-30.2 41.6-30.8 53.3-1.4 28.4-0.4 187.8-0.1 238.4z m134.5-314.8z" fill="#6D1212" p-id="37720"></path><path d="M484.5 419c-0.3-72-0.9-187.5-0.9-215.9 0-18.8 21.2-38.6 46.4-56 17.9-12.4 39.1-11.8 48.5-7.9 4.7 2 6.7 3.1 6.7 6.6l-0.3 273.2H484.5z" fill="#D74040" p-id="37721"></path><path d="M613.8 605.4H409c-12.5 0-22.7-10.2-22.7-22.7v-126c0-12.5 10.2-22.7 22.7-22.7h204.7c12.5 0 22.7 10.2 22.7 22.7v126c0 12.5-10.2 22.7-22.6 22.7z" fill="#CDB37E" p-id="37722"></path><path d="M613.8 620.9H409c-21 0-38.2-17.1-38.2-38.2v-126c0-21 17.1-38.2 38.2-38.2h204.7c21 0 38.2 17.1 38.2 38.2v126c0 21.1-17.1 38.2-38.1 38.2zM409 449.6c-3.9 0-7.2 3.3-7.2 7.2v126c0 3.9 3.3 7.2 7.2 7.2h204.7c3.9 0 7.2-3.3 7.2-7.2v-126c0-3.9-3.3-7.2-7.2-7.2H409z" fill="#6D1212" p-id="37723"></path><path d="M647.5 911.1H377.2c-12.5 0-22.7-10.2-22.7-22.7V618.1c0-12.5 10.2-22.7 22.7-22.7h270.3c12.5 0 22.7 10.2 22.7 22.7v270.3c0 12.5-10.2 22.7-22.7 22.7z" fill="#D74040" p-id="37724"></path><path d="M647.5 926.6H377.2c-21 0-38.2-17.1-38.2-38.2V618.1c0-21 17.1-38.2 38.2-38.2h270.3c21 0 38.2 17.1 38.2 38.2v270.3c0 21.1-17.2 38.2-38.2 38.2zM377.2 610.9c-3.9 0-7.2 3.3-7.2 7.2v270.3c0 3.9 3.3 7.2 7.2 7.2h270.3c3.9 0 7.2-3.3 7.2-7.2V618.1c0-3.9-3.3-7.2-7.2-7.2H377.2z" fill="#6D1212" p-id="37725"></path><path d="M461.7 728.5h100.2v182.6H461.7z" fill="#ECDDAF" p-id="37726"></path><path d="M577 926.2H446.6V713.4H577v212.8zM476.8 896h70V743.6h-70V896z" fill="#6D1212" p-id="37727"></path></svg>