<?xml version="1.0" standalone="no"?><!DOCTYPE svg PUBLIC "-//W3C//DTD SVG 1.1//EN" "http://www.w3.org/Graphics/SVG/1.1/DTD/svg11.dtd"><svg t="1648281741385" class="icon" viewBox="0 0 1024 1024" version="1.1" xmlns="http://www.w3.org/2000/svg" p-id="36491" xmlns:xlink="http://www.w3.org/1999/xlink" width="200" height="200"><defs><style type="text/css">@font-face { font-family: feedback-iconfont; src: url("//at.alicdn.com/t/font_1031158_u69w8yhxdu.woff2?t=1630033759944") format("woff2"), url("//at.alicdn.com/t/font_1031158_u69w8yhxdu.woff?t=1630033759944") format("woff"), url("//at.alicdn.com/t/font_1031158_u69w8yhxdu.ttf?t=1630033759944") format("truetype"); }
</style></defs><path d="M771.508855 265.930664c0-73.008143-59.184667-132.19281-132.19281-132.192811H384.59283c-73.008143 0-132.19281 59.184667-132.192811 132.192811v492.26461c0 73.008143 59.184667 132.19281 132.192811 132.192811h254.723215c73.008143 0 132.19281-59.184667 132.19281-132.192811V265.930664z m-33.788216 491.937991c0 53.962852-43.745501 97.708353-97.708352 97.708352H384.919449c-53.962852 0-97.708353-43.745501-97.708353-97.708352V266.257283c0-53.962852 43.745501-97.708353 97.708353-97.708352h255.092838c53.962852 0 97.708353 43.745501 97.708352 97.708352v491.611372z m-224.575935 21.447326c-17.209465 0-31.208025 14.000608-31.208025 31.207s13.999584 31.207001 31.208025 31.207001c17.209465 0 31.208025-14.000608 31.208024-31.207001s-13.999584-31.207001-31.208024-31.207zM431.529781 219.743197c0-9.524181 7.720095-17.406051 17.242229-17.406051h126.445742c9.523157 0 17.242229 7.881869 17.242228 17.406051s-7.720095 17.406051-17.242228 17.40605H448.77201c-9.522134 0-17.242229-7.881869-17.242229-17.40605z m282.641496 64.341977c0-9.523157-7.720095-17.242229-17.242229-17.242228H324.932056c-9.523157 0-17.242229 7.720095-17.242229 17.242228v448.788392c0 9.523157 7.720095 17.242229 17.242229 17.242229h371.996992c9.523157 0 17.242229-7.720095 17.242229-17.242229V284.085174z m-33.788216 431.21852h-337.882157v-413.649671h337.882157v413.649671z" fill="#1296db" p-id="36492"></path></svg>