<?xml version="1.0" standalone="no"?><!DOCTYPE svg PUBLIC "-//W3C//DTD SVG 1.1//EN" "http://www.w3.org/Graphics/SVG/1.1/DTD/svg11.dtd"><svg t="1648281790172" class="icon" viewBox="0 0 1024 1024" version="1.1" xmlns="http://www.w3.org/2000/svg" p-id="37558" xmlns:xlink="http://www.w3.org/1999/xlink" width="200" height="200"><defs><style type="text/css">@font-face { font-family: feedback-iconfont; src: url("//at.alicdn.com/t/font_1031158_u69w8yhxdu.woff2?t=1630033759944") format("woff2"), url("//at.alicdn.com/t/font_1031158_u69w8yhxdu.woff?t=1630033759944") format("woff"), url("//at.alicdn.com/t/font_1031158_u69w8yhxdu.ttf?t=1630033759944") format("truetype"); }
</style></defs><path d="M592.7 389.3s-0.1-0.1-0.2-0.1c0.1 0 0.1 0 0.2-0.1v0.2z" fill="#FFF3C0" p-id="37559"></path><path d="M592.7 389.1c-0.1 0-0.1 0-0.2 0.1-72.9-56-154.6-101-242.8-132.7 43-22.7 92-35.5 144-35.5 27.8 0 54.8 3.7 80.4 10.5 10.7 51.1 17 103.7 18.6 157.6zM802.8 530c0 25.6-3.1 50.4-9 74.2C739 522 670.9 449.4 592.7 389.3v-0.2c48.2-18.2 98.4-32.5 150.1-42.2 37.7 51.2 60 114.5 60 183.1z" fill="#FFED9F" p-id="37560"></path><path d="M592.7 389.3s-0.1-0.1-0.2-0.1c0.1 0 0.1 0 0.2-0.1v0.2z" fill="#FFF3C0" p-id="37561"></path><path d="M742.7 346.9c-40.9-55.6-100.1-97-168.6-115.4 10.7 51.1 17 103.8 18.5 157.6 48.2-18.2 98.4-32.5 150.1-42.2zM349.7 256.5c-98.1 51.7-165 154.8-165 273.5 0 47.1 10.6 91.8 29.4 131.8 99.1-121.3 229.3-216.2 378.4-272.6-72.9-56-154.7-101.1-242.8-132.7zM592.7 389.3c0.3 8.9 0.4 17.7 0.4 26.6 0 152.9-38.1 296.9-105.5 423.1 2 0 4.1 0.1 6.1 0.1 145.1 0 266.9-100 300.1-234.9C739 522 670.9 449.4 592.7 389.3z" fill="#83D3FF" p-id="37562"></path><path d="M593.1 415.9c0 152.9-38.1 296.9-105.5 423.1-120.9-2.4-224.8-74.2-273.5-177.2 99.1-121.3 229.3-216.2 378.4-272.6 0.1 0 0.1 0.1 0.2 0.1 0.2 8.8 0.4 17.7 0.4 26.6z" fill="#FFED9F" p-id="37563"></path><path d="M793.9 604.2c-33.2 134.9-155 234.9-300.1 234.9-2 0-4.1 0-6.1-0.1C555 712.9 593.2 568.9 593.2 415.9c0-8.9-0.1-17.8-0.4-26.6C670.9 449.4 739 522 793.9 604.2z" fill="#83D3FF" p-id="37564"></path><path d="M493.7 846.1c-2.3 0-4.3 0-6.3-0.1l-11.4-0.3 5.3-10c33.8-63.3 59.8-130.5 77.4-199.9 18.1-71.5 27.3-145.4 27.3-219.9 0-8.8-0.1-17.7-0.4-26.4l-0.4-14.7 11.7 9c79.1 60.8 147.4 133.6 202.7 216.5l1.7 2.6-0.7 3c-16.6 67.4-55.9 128.4-110.5 171.8-27.3 21.7-57.8 38.6-90.6 50.2-33.9 12.1-69.5 18.2-105.8 18.2zM600 403.9c0.1 4 0.1 8 0.1 12.1 0 75.6-9.3 150.7-27.7 223.3-16.9 66.7-41.5 131.5-73.2 192.7 32.8-0.6 65-6.4 95.7-17.3 31.3-11.1 60.4-27.3 86.6-48 51.5-40.8 88.6-98 104.9-161.2C734.8 529 672.2 461.2 600 403.9z" fill="#2C96FF" p-id="37565"></path><path d="M748.4 342.7l-2.6-3.5-4.3 0.8c-48.2 9.1-96 22.3-142.1 39.2-2-50.2-8.2-100.3-18.3-149.1l-0.9-4.2-4.2-1.1c-26.7-7.2-54.3-10.8-82.2-10.8-51.3 0-102.2 12.6-147.3 36.3l-14 7.4 14.9 5.4c82.6 29.7 160.3 71.5 230.9 124.1-143.7 56.7-271.2 150-369.6 270.2l-2.8 3.4 1.9 4c24.8 52.5 63.6 97.2 112.1 129.2 49.8 32.9 107.7 50.8 167.6 52l4.3 0.1 2-3.8c34.3-64.3 60.7-132.6 78.6-203 18.4-72.6 27.7-147.7 27.7-223.3 0-4 0-8-0.1-12 73 58 136.2 126.6 188.1 204.2l8.8 13.2 3.8-15.4c6.1-24.7 9.2-50.2 9.2-75.9-0.1-68.1-21.3-132.8-61.5-187.4zM493.7 227.9c25.2 0 50.2 3.1 74.4 9.2 9.2 45.1 14.9 91.4 17 137.7-67-49.7-140.1-89.8-217.7-119.3 39.4-18.1 82.7-27.6 126.3-27.6z m65.1 407.9c-17.2 68-42.6 133.9-75.3 196.1-55.7-1.9-109.5-19-155.8-49.6-45.2-29.8-81.5-71.1-105.2-119.5 97-117.4 222.4-208.4 363.5-263.6 0.1 5.6 0.2 11.2 0.2 16.7-0.1 74.5-9.3 148.4-27.4 219.9z m231.7-49c-51.3-73.9-113-139.6-183.8-195.4 43.3-15.7 87.9-28 133-36.8 36.7 51.4 56.1 111.9 56.1 175.4 0 19.1-1.8 38.2-5.3 56.8z" fill="#FF9C0D" p-id="37566"></path><path d="M799.7 600.3c-53.1-79.5-118-149.7-193-208.9 44.6-16.2 90.8-28.8 137.3-37.6l10.9-2.1-6.6-9c-42.4-57.6-103.7-99.5-172.4-118l-11-3 2.3 11.1c9.7 46.5 15.7 94.1 17.8 141.9-71.3-53-149.6-95-233-125l-2.9-1-2.7 1.4c-50.1 26.4-92.3 65.9-122 114.2-30.6 49.7-46.8 106.9-46.8 165.5 0 47.1 10.1 92.5 30.1 134.8l4.7 10 7-8.6c97.4-119.1 223.9-211.2 366.4-267 0.1 5.6 0.2 11.1 0.2 16.7 0 74.4-9.2 148.4-27.3 219.9-17.6 69.4-43.6 136.6-77.4 199.9l-5.3 10 11.4 0.3c2 0 4 0.1 6.3 0.1 36.3 0 71.9-6.1 105.8-18.1 32.8-11.6 63.2-28.5 90.6-50.2 54.7-43.4 93.9-104.4 110.5-171.8l0.7-3-1.6-2.5z m-69.4-258.1c-44.4 9-88.4 21.4-131 37-1.8-46.3-7.2-92.5-16-137.8 57.7 17.9 109.2 53.2 147 100.8zM215.9 648.7c-16.1-37.5-24.2-77.4-24.2-118.7 0-56 15.5-110.7 44.7-158.2 27.9-45.3 67.2-82.5 113.9-107.7 81.6 29.7 158.2 71 228 123.1-140.2 55.3-265.1 145.4-362.4 261.5z m465.5 118c-26.1 20.7-55.3 36.9-86.6 48-30.7 10.9-62.9 16.7-95.7 17.3 31.7-61.2 56.3-126 73.2-192.8 18.4-72.6 27.7-147.7 27.7-223.3 0-4 0-8-0.1-12.1 72.2 57.3 134.8 125.1 186.3 201.6-16.2 63.3-53.3 120.5-104.8 161.3z" fill="#2C96FF" p-id="37567"></path><path d="M739.7 354.6c-12.5 2.4-24.9 5.1-37.3 8.1 14.7 36.4 22.8 76.2 22.8 117.8 0 7.4-0.3 14.8-0.8 22.1 23.6 26.7 45.7 54.8 66.1 84.2 3.5-18.6 5.3-37.7 5.3-56.8 0-63.5-19.4-124-56.1-175.4zM335.1 787.1c44.6 27.6 95.7 43 148.3 44.8 9-17 17.3-34.3 25.2-51.8-31.1 10.3-64.4 15.9-99 15.9-25.6 0-50.6-3.1-74.5-8.9z" fill="#FFDB43" p-id="37568"></path><path d="M730.3 342.2c-24.6-30.9-54.9-56.6-89-75.7 22.6 24.5 41.4 52.5 55.4 83.2 11.2-2.8 22.4-5.3 33.6-7.5zM722.5 521.7c-15 114.8-91.6 210.2-195.6 251.8-8.5 19.8-17.7 39.4-27.7 58.5 32.8-0.6 65-6.4 95.7-17.3 31.3-11.1 60.4-27.3 86.6-48 51.5-40.8 88.6-98 104.9-161.2-19.8-29.3-41.1-57.2-63.9-83.8z" fill="#43C5FF" p-id="37569"></path><path d="M600.7 360.6c-3.5-1.2-7.1-1.9-10.7-1.9-4.7 0-9.4 1-13.7 3.1-7.7 3.7-13.6 10.1-16.4 18.2-5.9 16.6 2.8 35 19.4 40.9 8.1 2.9 16.7 2.4 24.5-1.3 7.7-3.7 13.6-10.1 16.4-18.2 5.8-16.5-2.9-34.9-19.5-40.8z" fill="#FFFFFF" p-id="37570"></path><path d="M603 354c-3.9-1.4-7.9-2.1-11.9-2.2 16.7 9 24.9 29 18.3 47.4-5.8 16.4-21.5 26.4-38 25.9 1.7 0.9 3.5 1.7 5.4 2.4 20.3 7.2 42.6-3.4 49.8-23.7 7.3-20.2-3.3-42.6-23.6-49.8z" fill="#DB9883" p-id="37571"></path><path d="M590 436.8c-5.2 0-10.4-0.9-15.4-2.7-23.9-8.5-36.4-34.9-27.9-58.8 4.1-11.6 12.5-20.9 23.6-26.1 11.1-5.3 23.6-5.9 35.2-1.8 23.9 8.5 36.4 34.9 28 58.8-4.1 11.6-12.5 20.9-23.6 26.1-6.5 3-13.2 4.5-19.9 4.5z m-0.1-78c-4.7 0-9.4 1-13.7 3.1-7.7 3.7-13.6 10.1-16.4 18.2-5.9 16.6 2.8 35 19.4 40.9 8.1 2.9 16.7 2.4 24.5-1.3 7.7-3.7 13.6-10.1 16.4-18.2 5.9-16.6-2.8-35-19.4-40.9-3.5-1.2-7.2-1.8-10.8-1.8z" fill="#845947" p-id="37572"></path></svg>