<?xml version="1.0" standalone="no"?><!DOCTYPE svg PUBLIC "-//W3C//DTD SVG 1.1//EN" "http://www.w3.org/Graphics/SVG/1.1/DTD/svg11.dtd"><svg t="1648281826030" class="icon" viewBox="0 0 1024 1024" version="1.1" xmlns="http://www.w3.org/2000/svg" p-id="38785" xmlns:xlink="http://www.w3.org/1999/xlink" width="200" height="200"><defs><style type="text/css">@font-face { font-family: feedback-iconfont; src: url("//at.alicdn.com/t/font_1031158_u69w8yhxdu.woff2?t=1630033759944") format("woff2"), url("//at.alicdn.com/t/font_1031158_u69w8yhxdu.woff?t=1630033759944") format("woff"), url("//at.alicdn.com/t/font_1031158_u69w8yhxdu.ttf?t=1630033759944") format("truetype"); }
</style></defs><path d="M716.769588 330.310808h-405.488348a20.274417 20.274417 0 0 1 0-40.548834h405.488348a20.274417 20.274417 0 1 1 0 40.548834z" fill="#6E6E96" p-id="38786"></path><path d="M533.663215 305.981508h-40.548835V190.421383h20.274418c35.727578 0 64.792983-29.065405 64.792983-64.797038 0-35.731633-29.065405-64.801093-64.792983-64.801093-35.731633 0-64.797038 29.06946-64.797038 64.801093h-40.548835C408.042925 67.534084 455.302592 20.274417 513.388798 20.274417c58.082151 0 105.341818 47.259667 105.341818 105.349928 0 51.152355-36.648037 93.907047-85.067401 103.387364V305.981508z" fill="#6E6E96" p-id="38787"></path><path d="M728.670671 292.985606c-28.87077-28.87077-95.893939 125.101265-214.183 125.101265-118.293116 0-184.97973-154.304536-214.170836-125.101265l-5.660617-0.948843L103.245443 483.439428l123.53608 127.063829 67.874695-67.87064v457.038082h437.676013V542.632617l64.89841 64.894355 123.53608-127.055719-184.922961-188.43449-7.173089 0.948843z" fill="#F0F0FF" p-id="38788"></path><path d="M921.245198 496.893532l-170.929559-174.441088a20.274417 20.274417 0 0 0-17.144047-5.907965l-7.173089 0.948843a20.254143 20.254143 0 0 1 16.994017 5.761989c-6.321563-6.313454-14.224531-9.614129-22.885763-9.545196-19.978411 0.16625-36.518281 17.257584-61.561241 43.135851-34.944986 36.112792-82.80883 85.570206-144.082174 85.570206-61.111149 0-108.841182-49.392536-143.692906-85.452614-24.215764-25.05107-41.696367-43.15207-61.788315-43.32643-8.70178-0.072988-16.673681 3.252017-23.039848 9.618183a20.254143 20.254143 0 0 1 17.683347-5.660617l-5.652507-0.948843a20.262253 20.262253 0 0 0-17.691457 5.660617L102.900778 499.719785l28.672081 28.672081L308.990231 350.982604a20.290637 20.290637 0 0 1-17.691457 5.660618l5.660618 0.948842a20.233869 20.233869 0 0 0 17.683347-5.660617c-2.031497 2.031497-5.684947 2.60729-7.319065 2.10854 6.053941 1.857137 22.387012 18.761946 34.312424 31.105011 37.645538 38.955266 94.531499 120.774704 172.851573 120.774704 78.47416 0 135.485822-81.876207 173.232732-120.872021 11.872699-12.270077 28.132782-29.073515 34.146174-30.946871-1.662502 0.519025-5.421379-0.068933-7.517754-2.169363a20.278472 20.278472 0 0 0 16.994017 5.76199l7.164979-0.948843a20.274417 20.274417 0 0 1-17.144048-5.907965l170.921449 174.441087 28.959978-28.384184z" fill="#FFFFFF" opacity=".37" p-id="38789"></path><path d="M743.004684 278.647538c-6.321563-6.313454-14.224531-9.614129-22.885762-9.545196-19.978411 0.16625-36.518281 17.257584-61.561241 43.135851-34.944986 36.112792-82.80883 85.570206-144.082175 85.570206-61.107094 0-108.841182-49.392536-143.692906-85.452615-24.2036-25.05107-41.688257-43.15207-61.780204-43.32643-8.70178-0.072988-16.673681 3.252017-23.039848 9.618184a20.254143 20.254143 0 0 1 17.683347-5.660617l-5.652508-0.948843a20.262253 20.262253 0 0 0-17.691457 5.660617L88.907375 469.10136a20.274417 20.274417 0 0 0-0.198689 28.469337l123.53608 127.063829a20.314966 20.314966 0 0 0 14.402946 6.147203 20.250088 20.250088 0 0 0 14.471879-5.940404l67.874695-67.87064a20.266308 20.266308 0 0 1-34.608431-14.329958v457.038082a20.274417 20.274417 0 0 0 20.274418 20.274417h437.676013a20.274417 20.274417 0 0 0 20.274417-20.274417V542.632617a20.274417 20.274417 0 1 1-34.60843 14.334013l64.89841 64.894356c3.83592 3.831865 9.0505 5.980953 14.475934 5.940404s10.60352-2.25046 14.394836-6.147203l123.536081-127.051665a20.270363 20.270363 0 0 0-0.068933-28.33147l-184.922962-188.434491a20.266308 20.266308 0 0 0-17.131882-5.899855l-7.173089 0.948843a20.266308 20.266308 0 0 1 16.994016 5.761989z m-21.640913 27.589427l184.918907 188.43449a20.282527 20.282527 0 0 1-0.068933-28.33147l-123.536081 127.055719a20.282527 20.282527 0 0 1 28.870771-0.202745l-64.90652-64.894355a20.266308 20.266308 0 0 0-34.600321 14.334013v457.038082c0-11.199588 9.066719-20.274417 20.274418-20.274417H294.656218a20.274417 20.274417 0 0 1 20.274417 20.274417V542.632617a20.270363 20.270363 0 0 0-34.60843-14.334013l-67.87875 67.87064a20.213594 20.213594 0 0 1 14.47188-5.940404 20.282527 20.282527 0 0 1 14.394836 6.143148l-123.53608-127.063829a20.274417 20.274417 0 0 1-0.19869 28.469337L308.990231 306.374831a20.290637 20.290637 0 0 1-17.691457 5.660618l5.660618 0.948842a20.233869 20.233869 0 0 0 17.683347-5.660617c-2.031497 2.031497-5.684947 2.60729-7.319065 2.108539 6.053941 1.857137 22.387012 18.761946 34.312424 31.105012 37.645538 38.955266 94.531499 97.824064 172.851573 97.824064 78.47416 0 135.485822-58.929622 173.232732-97.921382 11.872699-12.270077 28.132782-29.073515 34.146174-30.94687-1.662502 0.519025-5.421379-0.068933-7.517754-2.169363a20.278472 20.278472 0 0 0 16.994017 5.761989l7.164979-0.948842a20.278472 20.278472 0 0 1-17.144048-5.899856z" fill="#6E6E96" p-id="38790"></path><path d="M570.793783 558.633187h89.207437v40.548835h-89.207437z" fill="#6E6E96" p-id="38791"></path><path d="M294.656218 979.396282s443.210929-193.872089 231.541957-173.419257c-131.686396 12.724224-55.089647-19.832435 48.666711-72.987903 137.188873-70.29546 149.706298-209.086012 149.706298-209.086012l7.756992 455.493172H294.656218z" fill="#6E6E96" opacity=".1" p-id="38792"></path></svg>