<?xml version="1.0" standalone="no"?><!DOCTYPE svg PUBLIC "-//W3C//DTD SVG 1.1//EN" "http://www.w3.org/Graphics/SVG/1.1/DTD/svg11.dtd"><svg t="1648281769480" class="icon" viewBox="0 0 1024 1024" version="1.1" xmlns="http://www.w3.org/2000/svg" p-id="37257" xmlns:xlink="http://www.w3.org/1999/xlink" width="200" height="200"><defs><style type="text/css">@font-face { font-family: feedback-iconfont; src: url("//at.alicdn.com/t/font_1031158_u69w8yhxdu.woff2?t=1630033759944") format("woff2"), url("//at.alicdn.com/t/font_1031158_u69w8yhxdu.woff?t=1630033759944") format("woff"), url("//at.alicdn.com/t/font_1031158_u69w8yhxdu.ttf?t=1630033759944") format("truetype"); }
</style></defs><path d="M1024 512c0 282.737778-229.262222 512-512 512s-512-229.262222-512-512 229.262222-512 512-512 512 229.262222 512 512" fill="#F2F2F2" p-id="37258"></path><path d="M559.217778 375.466667c19.911111-22.755556 32.426667-52.906667 32.426666-85.902223 0-71.68-58.595556-130.275556-130.844444-130.275555S329.955556 217.884444 329.955556 289.564444c0 32.995556 12.515556 62.577778 32.426666 85.902223h196.835556z" fill="#D3BEFF" p-id="37259"></path><path d="M536.462222 364.088889H339.626667c-3.413333 0-6.257778-1.137778-8.533334-3.982222C308.337778 333.937778 295.822222 300.942222 295.822222 266.808889c0-77.937778 63.715556-141.653333 142.222222-141.653333S580.266667 188.871111 580.266667 266.808889c0 34.133333-12.515556 67.128889-35.271111 93.297778-2.275556 2.275556-5.12 3.982222-8.533334 3.982222z m-191.715555-22.755556h186.595555c17.066667-21.048889 26.168889-47.217778 26.168889-74.524444 0-65.422222-53.475556-118.897778-119.466667-118.897778S318.577778 201.386667 318.577778 266.808889c0 27.306667 9.102222 53.475556 26.168889 74.524444z" fill="#6F0EF5" p-id="37260"></path><path d="M553.528889 318.577778H311.751111c-21.048889 0-38.115556-17.635556-38.115555-39.822222s17.066667-39.822222 38.115555-39.822223h241.777778c21.048889 0 38.115556 17.635556 38.115555 39.822223 0 21.617778-17.066667 39.822222-38.115555 39.822222" fill="#FFFFFF" p-id="37261"></path><path d="M352.711111 386.844444l1.706667 15.928889 35.271111 350.435556c2.844444 30.72 29.013333 54.044444 59.733333 54.044444s56.32-23.324444 59.733334-54.044444l35.271111-350.435556 1.706666-15.928889H352.711111z" fill="#D3BEFF" p-id="37262"></path><path d="M426.666667 796.444444c-36.977778 0-67.128889-27.875556-71.111111-64.284444L318.577778 365.226667c-0.568889-3.413333 0.568889-6.257778 2.844444-8.533334 2.275556-2.275556 5.12-3.982222 8.533334-3.982222h193.422222c3.413333 0 6.257778 1.137778 8.533333 3.982222 2.275556 2.275556 3.413333 5.688889 2.844445 8.533334l-36.977778 366.933333c-3.982222 36.408889-34.133333 64.284444-71.111111 64.284444z m-84.195556-420.977777l35.84 354.417777c2.275556 25.031111 23.324444 43.804444 48.355556 43.804445s46.08-18.773333 48.355555-43.804445l35.84-354.417777H342.471111zM552.96 318.577778H311.182222c-27.306667 0-50.062222-22.755556-50.062222-51.2s22.186667-51.2 50.062222-51.2h241.777778c27.306667 0 50.062222 22.755556 50.062222 51.2s-22.186667 51.2-50.062222 51.2z m-241.208889-79.644445c-14.791111 0-27.306667 12.515556-27.306667 28.444445s11.946667 28.444444 27.306667 28.444444h241.777778c14.791111 0 27.306667-12.515556 27.306667-28.444444s-11.946667-28.444444-27.306667-28.444445H311.751111z" fill="#6F0EF5" p-id="37263"></path><path d="M520.533333 887.466667c-55.182222 0-99.555556-44.942222-99.555555-99.555556V778.808889c0-6.257778 5.12-11.377778 11.377778-11.377778s11.377778 5.12 11.377777 11.377778v9.102222c0 42.666667 34.702222 76.8 76.8 76.8 42.666667 0 76.8-34.702222 76.8-76.8v-193.422222c0-45.511111 36.977778-82.488889 82.488889-82.488889S762.311111 548.977778 762.311111 594.488889v118.328889c0 6.257778-5.12 11.377778-11.377778 11.377778s-11.377778-5.12-11.377777-11.377778V594.488889c0-32.995556-26.737778-59.733333-59.733334-59.733333S620.088889 561.493333 620.088889 594.488889v193.422222c0 54.613333-44.373333 99.555556-99.555556 99.555556z" fill="#6F0EF5" p-id="37264"></path><path d="M432.355556 523.377778c-6.257778 0-11.377778-5.12-11.377778-11.377778v-79.644444c0-6.257778 5.12-11.377778 11.377778-11.377778s11.377778 5.12 11.377777 11.377778v79.644444c0 6.257778-5.12 11.377778-11.377777 11.377778z" fill="#9D4CE8" p-id="37265"></path></svg>