<?xml version="1.0" standalone="no"?><!DOCTYPE svg PUBLIC "-//W3C//DTD SVG 1.1//EN" "http://www.w3.org/Graphics/SVG/1.1/DTD/svg11.dtd"><svg t="1648461678409" class="icon" viewBox="0 0 1024 1024" version="1.1" xmlns="http://www.w3.org/2000/svg" p-id="3271" xmlns:xlink="http://www.w3.org/1999/xlink" width="200" height="200"><defs><style type="text/css">@font-face { font-family: feedback-iconfont; src: url("//at.alicdn.com/t/font_1031158_u69w8yhxdu.woff2?t=1630033759944") format("woff2"), url("//at.alicdn.com/t/font_1031158_u69w8yhxdu.woff?t=1630033759944") format("woff"), url("//at.alicdn.com/t/font_1031158_u69w8yhxdu.ttf?t=1630033759944") format("truetype"); }
</style></defs><path d="M175.1 719.7h677.5L938.8 838c32 44.7 14.4 81.5-41.5 81.5H122.4c-54.3 0-71.9-35.2-39.9-79.9l92.6-119.9z" fill="#B9C5D0" p-id="3272"></path><path d="M269 147.7h433c55.9 0 100.7 44.7 100.7 100.7v484.1c0 55.9-44.7 100.7-100.7 100.7H269c-55.9 0-100.7-44.7-100.7-100.7V248.4c0.1-56 44.8-100.7 100.7-100.7z" fill="#96CEFE" p-id="3273"></path><path d="M644.5 347.4H325c-14.4 0-27.2 11.2-27.2 25.6 0 14.4 11.2 25.6 27.2 25.6h319.5c14.4 0 27.2-11.2 27.2-25.6-1.6-14.4-12.8-25.6-27.2-25.6z m0 158.2H325c-14.4 0-27.2 11.2-27.2 25.6 0 14.4 11.2 25.6 27.2 25.6h319.5c14.4 0 27.2-11.2 27.2-25.6-1.6-14.4-12.8-25.6-27.2-25.6z" fill="#FFFFFF" p-id="3274"></path><path d="M598.2 210H380.9c-28.8 0-52.7-24-52.7-52.7-1.6-28.8 22.4-52.7 52.7-52.7h217.3c28.8 0 52.7 24 52.7 52.7v1.6c0 14.4-6.4 27.2-16 36.7-9.5 9.6-22.3 14.4-36.7 14.4z" fill="#B9C5D0" p-id="3275"></path><path d="M617.4 700.5c0 61.1 32.9 117.5 86.3 148.1 53.4 30.5 119.2 30.5 172.6 0 53.4-30.5 86.3-87 86.3-148.1 0-94.4-77.3-171-172.6-171-95.4 0.1-172.6 76.6-172.6 171z" fill="#FF9501" p-id="3276"></path><path d="M711.6 730.9h55.9v-27.2h-55.9c-16 0-22.4-9.6-22.4-19.2s8-16 22.4-16h39.9L721.1 619c-9.6-20.8 22.4-36.7 33.6-20.8 11.2 19.2 35.2 55.9 35.2 55.9s25.6-39.9 38.3-60.7c11.2-19.2 44.7 3.2 33.6 24-11.2 17.6-33.6 51.1-33.6 51.1h39.9c16 0 22.4 4.8 22.4 16s-8 19.2-22.4 19.2h-55.9v27.2h55.9c16 0 22.4 4.8 22.4 16 0 9.6-8 17.6-22.4 17.6h-55.9v3.2c0 22.4-8 33.6-22.4 33.6-14.4 0-22.4-11.2-22.4-33.6v-3.2h-55.9c-16 0-22.4-8-22.4-17.6-1.4-11.2 6.6-16 22.5-16z" fill="#FFFFFF" p-id="3277"></path></svg>