<?xml version="1.0" standalone="no"?><!DOCTYPE svg PUBLIC "-//W3C//DTD SVG 1.1//EN" "http://www.w3.org/Graphics/SVG/1.1/DTD/svg11.dtd"><svg t="1648281810971" class="icon" viewBox="0 0 1024 1024" version="1.1" xmlns="http://www.w3.org/2000/svg" p-id="38179" xmlns:xlink="http://www.w3.org/1999/xlink" width="200" height="200"><defs><style type="text/css">@font-face { font-family: feedback-iconfont; src: url("//at.alicdn.com/t/font_1031158_u69w8yhxdu.woff2?t=1630033759944") format("woff2"), url("//at.alicdn.com/t/font_1031158_u69w8yhxdu.woff?t=1630033759944") format("woff"), url("//at.alicdn.com/t/font_1031158_u69w8yhxdu.ttf?t=1630033759944") format("truetype"); }
</style></defs><path d="M340.385185 194.37037l-158.340741-22.755555c-120.414815 167.822222-57.837037 385.896296 79.644445 424.77037l-30.340741 215.22963c-127.051852-13.274074-165.925926 28.444444-112.829629 36.029629 55.940741 7.585185-40.77037-5.688889 126.103703 18.014815s70.162963 10.42963 126.103704 18.014815c53.096296 7.585185 27.496296-42.666667-98.607407-65.422222l30.34074-215.22963c143.17037 0.948148 264.533333-191.525926 196.266667-385.896296l-158.340741-22.755556z" fill="#EBEBEC" p-id="38180"></path><path d="M822.044444 785.066667l-30.34074-215.22963c137.481481-37.925926 200.059259-256.948148 79.644444-424.77037l-158.340741 22.755555-158.34074 22.755556c-68.266667 194.37037 53.096296 386.844444 195.318518 384.948148l30.340741 215.22963c-125.155556 22.755556-150.755556 73.007407-98.607407 65.422222 55.940741-7.585185-40.77037 5.688889 126.103703-18.014815s70.162963-10.42963 126.103704-18.014815c54.044444-6.637037 15.17037-48.355556-111.881482-35.081481z" fill="#EBEBEC" p-id="38181"></path><path d="M236.088889 852.385185l30.340741-215.229629c143.17037 1.896296 264.533333-190.577778 196.266666-384.948149l-158.34074-22.755555-158.340741-22.755556C25.6 374.518519 88.177778 593.540741 225.659259 631.466667l-30.34074 215.229629c-127.051852-13.274074-165.925926 28.444444-112.82963 36.02963 55.940741 7.585185-40.77037-5.688889 126.103704 18.014815s70.162963 10.42963 126.103703 18.014815c52.148148 7.585185 26.548148-43.614815-98.607407-66.370371z" fill="#FFFFFF" p-id="38182"></path><path d="M435.2 383.051852c-56.888889-36.977778-91.97037-54.044444-171.614815-42.666667-51.2 7.585185-93.866667-20.859259-117.57037-41.718518-59.733333 130.844444-1.896296 279.703704 106.192592 294.874074 96.711111 14.222222 184.888889-86.281481 186.785186-209.540741-0.948148 0.948148-1.896296 0-3.792593-0.948148z" fill="#EF4044" p-id="38183"></path><path d="M252.207407 594.488889c63.525926 9.481481 123.259259-31.288889 157.392593-94.814815-45.511111-44.562963-103.348148-41.718519-190.577778-30.340741-62.577778 8.533333-86.281481-45.511111-95.762963-84.385185-9.481481 103.348148 44.562963 197.214815 128.948148 209.540741z" fill="#CE1725" p-id="38184"></path><path d="M351.831347 374.103646a6.637037 6.637037 0 1 0 1.879507-13.140338 6.637037 6.637037 0 1 0-1.879507 13.140338Z" fill="#FFFFFF" p-id="38185"></path><path d="M380.941757 407.550571a12.325926 12.325926 0 1 0 3.490514-24.403485 12.325926 12.325926 0 1 0-3.490514 24.403485Z" fill="#FFFFFF" p-id="38186"></path><path d="M357.842627 440.896253a8.533333 8.533333 0 1 0 2.416509-16.894721 8.533333 8.533333 0 1 0-2.416509 16.894721Z" fill="#FFFFFF" p-id="38187"></path><path d="M745.244444 826.785185l-30.34074-215.229629c-143.17037 1.896296-263.585185-190.577778-195.318519-384.948149l158.340741-22.755555 158.340741-22.755556c120.414815 167.822222 57.837037 385.896296-79.644445 424.770371L786.962963 821.096296c127.051852-13.274074 165.925926 27.496296 112.82963 35.081482-55.940741 7.585185 40.77037-5.688889-126.103704 18.014815s-70.162963 10.42963-126.103704 18.014814c-54.044444 7.585185-28.444444-42.666667 97.659259-65.422222z" fill="#FFFFFF" p-id="38188"></path><path d="M545.185185 356.503704c56.888889-36.977778 91.97037-54.044444 171.614815-42.666667C768 322.37037 810.666667 293.925926 834.37037 273.066667c59.733333 130.844444 1.896296 279.703704-106.192592 294.874074-96.711111 14.222222-184.888889-86.281481-186.785185-209.540741 0.948148 0 2.844444-0.948148 3.792592-1.896296z" fill="#FFCB1B" p-id="38189"></path><path d="M729.125926 567.940741c-63.525926 9.481481-123.259259-31.288889-157.392593-94.814815 45.511111-44.562963 103.348148-41.718519 190.577778-30.340741 62.577778 8.533333 86.281481-45.511111 95.762963-84.385185 9.481481 103.348148-44.562963 197.214815-128.948148 209.540741z" fill="#FCAF23" p-id="38190"></path><path d="M622.045028 342.211251a6.637037 6.637037 0 1 0 13.14001-1.881801 6.637037 6.637037 0 1 0-13.14001 1.881801Z" fill="#FFFFFF" p-id="38191"></path><path d="M586.104238 370.575293a12.325926 12.325926 0 1 0 24.402876-3.494774 12.325926 12.325926 0 1 0-24.402876 3.494774Z" fill="#FFFFFF" p-id="38192"></path><path d="M613.47939 406.933502a8.533333 8.533333 0 1 0 16.894299-2.419458 8.533333 8.533333 0 1 0-16.894299 2.419458Z" fill="#FFFFFF" p-id="38193"></path></svg>