<?xml version="1.0" standalone="no"?><!DOCTYPE svg PUBLIC "-//W3C//DTD SVG 1.1//EN" "http://www.w3.org/Graphics/SVG/1.1/DTD/svg11.dtd"><svg t="1648281725146" class="icon" viewBox="0 0 1024 1024" version="1.1" xmlns="http://www.w3.org/2000/svg" p-id="35937" xmlns:xlink="http://www.w3.org/1999/xlink" width="200" height="200"><defs><style type="text/css">@font-face { font-family: feedback-iconfont; src: url("//at.alicdn.com/t/font_1031158_u69w8yhxdu.woff2?t=1630033759944") format("woff2"), url("//at.alicdn.com/t/font_1031158_u69w8yhxdu.woff?t=1630033759944") format("woff"), url("//at.alicdn.com/t/font_1031158_u69w8yhxdu.ttf?t=1630033759944") format("truetype"); }
</style></defs><path d="M511.999488 726.325343c-12.06478 0-21.905916 10.006911-21.905916 22.12695 0 11.954263 9.841136 21.795399 21.905916 21.795399 12.012591 0 21.796422-9.841136 21.796422-21.795399l0-0.499373C533.79591 735.887117 524.013103 726.325343 511.999488 726.325343z" p-id="35938" fill="#1296db"></path><path d="M419.871231 632.357182c-11.565407-2.556219-23.297612 5.562692-25.689079 17.34811-2.390443 11.788487 5.337565 23.351847 17.069771 25.689079 1.38965 0.222057 2.835581 0.387833 4.336772 0.387833 10.174734-0.054235 19.238157-7.17133 21.350261-17.570167l0.056282-0.387833C439.385681 645.980457 431.658695 634.69339 419.871231 632.357182z" p-id="35939" fill="#1296db"></path><path d="M433.38092 545.732266c-11.675924-2.39249-23.408129 5.560646-25.742291 17.34811-2.391467 11.786441 5.282307 23.296589 17.180288 25.63075 1.279133 0.277316 2.7793 0.444115 4.281513 0.444115 10.063193 0 19.238157-7.17133 21.350261-17.511839l0.055259-0.446162C452.897416 559.408753 445.168384 548.066427 433.38092 545.732266z" p-id="35940" fill="#1296db"></path><path d="M404.302651 718.650547c-11.954263-1.444908-22.630417 7.729032-23.909549 19.684318-1.222851 12.007475 7.562233 22.682605 19.516496 23.905456 0.777713 0.11154 1.445932 0.11154 2.168386 0.11154 11.175527 0 20.516266-8.337899 21.739117-19.682271l0.11154-0.38988C425.097256 730.328517 416.312172 719.874421 404.302651 718.650547z" p-id="35941" fill="#1296db"></path><path d="M594.624301 384.043746l-36.694737 0L557.929564 221.300198l-92.019787 0 0 162.798806-36.531008 0c-72.225975 0-130.828674 58.547441-130.828674 130.830721L725.452975 514.929726C725.452975 442.647469 666.793994 384.043746 594.624301 384.043746z" p-id="35942" fill="#1296db"></path><path d="M362.435101 546.957163c-11.009751-4.562922-23.908526 1.109264-28.412097 12.342096-4.503571 11.118222 0.944512 23.798009 12.06478 28.245298 2.725064 1.111311 5.393847 1.610684 8.118911 1.610684 8.674567 0 16.791431-5.223978 20.237927-13.674441l0.167822-0.446162C379.05871 563.856042 373.610628 551.402405 362.435101 546.957163z" p-id="35943" fill="#1296db"></path><path d="M302.218648 711.533452c-11.06501-4.449335-23.963785 1.113357-28.356838 12.344143-4.448312 11.17655 0.890276 23.909549 12.066827 28.302603 2.668783 1.109264 5.448082 1.610684 8.061606 1.610684 8.728802 0 16.902972-5.228071 20.23895-13.791098l0.166799-0.387833C318.844304 728.436424 313.449433 715.980741 302.218648 711.533452z" p-id="35944" fill="#1296db"></path><path d="M330.463945 628.578112c-11.676947-3.669576-23.686469 3.223415-27.133987 14.789844-3.502777 11.564383 3.058662 23.684422 14.566764 27.131941 2.223644 0.669242 4.225231 0.945535 6.226818 0.945535 9.398044 0 18.182105-6.057973 20.906146-15.513322l0.11154-0.444115C348.701309 643.921565 341.974094 632.025631 330.463945 628.578112z" p-id="35945" fill="#1296db"></path><path d="M511.999488 545.231869c-12.06478 0-21.905916 9.841136-21.905916 21.851681 0 12.065803 9.841136 21.795399 21.905916 21.795399 12.012591 0 21.796422-9.729595 21.796422-21.795399l0-0.167822C533.79591 554.906206 524.013103 545.231869 511.999488 545.231869z" p-id="35946" fill="#1296db"></path><path d="M720.61683 643.367957l-0.056282-0.38988c-3.447519-11.510148-15.402805-17.847483-27.133987-14.399965-11.509125 3.447519-17.958 15.733333-14.512529 27.352975 2.78237 9.455349 11.565407 15.513322 20.850887 15.513322 2.113127 0 4.115738-0.276293 6.337335-0.945535C717.557144 667.051355 724.173842 654.93234 720.61683 643.367957z" p-id="35947" fill="#1296db"></path><path d="M689.923784 559.299259l-0.165776-0.446162c-4.393054-11.17655-17.013489-16.568351-28.30158-11.895935-11.120268 4.445242-16.457834 17.344017-11.955286 28.522614 3.39226 8.450463 11.565407 13.674441 20.295232 13.674441 2.614547 0 5.338588-0.499373 8.006348-1.610684C689.034531 583.096245 694.427354 570.417481 689.923784 559.299259z" p-id="35948" fill="#1296db"></path><path d="M750.139214 723.877595l-0.165776-0.444115c-4.448312-11.232832-17.181311-16.568351-28.299533-11.900028-11.122315 4.447289-16.516162 17.34811-12.011568 28.466332 3.39226 8.562003 11.565407 13.791098 20.239973 13.791098 2.724041 0 5.448082-0.50142 8.061606-1.610684C749.249961 747.787144 754.587526 735.054145 750.139214 723.877595z" p-id="35949" fill="#1296db"></path><path d="M612.63756 675.281807c11.734252-2.334161 19.516496-13.789051 17.071817-25.632797l-0.110517-0.38988c-2.224668-11.786441-13.789051-19.237133-25.52228-16.902972-11.840676 2.39249-19.461237 14.012132-17.068747 25.854854 2.168386 10.398838 11.231809 17.515932 21.296025 17.515932C609.747743 675.727968 611.248933 675.616428 612.63756 675.281807z" p-id="35950" fill="#1296db"></path><path d="M619.699396 718.650547c-12.121062 1.167592-20.792559 12.063757-19.628036 24.020066 1.169639 11.288091 10.676154 19.682271 21.741163 19.682271 0.667196 0 1.444908 0 2.223644-0.11154 11.955286-1.165546 20.626783-11.897981 19.461237-23.905456l0-0.446162C642.329812 725.991746 631.654682 717.205639 619.699396 718.650547z" p-id="35951" fill="#1296db"></path><path d="M599.18313 588.711126c11.843746-2.334161 19.571754-13.84431 17.126053-25.63075l-0.167822-0.446162c-2.279926-11.788487-14.010085-19.294438-25.575492-16.790408-11.843746 2.222621-19.349697 13.898545-17.013489 25.798573 2.111081 10.340509 11.17655 17.511839 21.351284 17.511839C596.40383 589.154217 597.79348 588.988442 599.18313 588.711126z" p-id="35952" fill="#1296db"></path><path d="M511.999488 635.749442c-12.06478 0-21.905916 9.953699-21.905916 22.074761 0 12.009522 9.841136 21.795399 21.905916 21.795399 12.012591 0 21.796422-9.785877 21.796422-21.795399l0-0.50142C533.79591 645.25698 524.013103 635.749442 511.999488 635.749442z" p-id="35953" fill="#1296db"></path></svg>